<?xml version="1.0" encoding="utf-8"?>
<!-- Generator: Adobe Illustrator 22.0.1, SVG Export Plug-In . SVG Version: 6.00 Build 0)  -->
<svg version="1.1" id="Layer_1" xmlns="http://www.w3.org/2000/svg" xmlns:xlink="http://www.w3.org/1999/xlink" x="0px" y="0px"
	 viewBox="0 0 30 30" style="enable-background:new 0 0 30 30;" xml:space="preserve">
<style type="text/css">
	.st0{fill:#FFFFFF;}
</style>
<path class="st0" d="M28.3,0H1.7C0.7,0,0,0.7,0,1.7v26.7C0,29.3,0.7,30,1.7,30H16V18.4h-3.9v-4.5H16v-3.3c0-3.9,2.4-6,5.8-6
	c1.7,0,3.1,0.1,3.5,0.2v4l-2.4,0c-1.9,0-2.2,0.9-2.2,2.2v2.9h4.5l-0.6,4.5h-3.9V30h7.6l0,0c0.9,0,1.7-0.7,1.7-1.7V1.7
	C30,0.7,29.3,0,28.3,0z"/>
</svg>
