<?xml version="1.0" encoding="utf-8"?>
<!-- Generator: Adobe Illustrator 22.0.1, SVG Export Plug-In . SVG Version: 6.00 Build 0)  -->
<svg version="1.1" id="Layer_1" xmlns="http://www.w3.org/2000/svg" xmlns:xlink="http://www.w3.org/1999/xlink" x="0px" y="0px"
	 viewBox="0 0 67.2 65.7" style="enable-background:new 0 0 67.2 65.7;" xml:space="preserve">
<style type="text/css">
	.st0{fill:#FFFFFF;}
</style>
<g>
	<path class="st0" d="M54.9,31.3H12.3C5.5,31.3,0,36.8,0,43.6v9.9c0,6.8,5.5,12.3,12.3,12.3h42.6c6.8,0,12.3-5.5,12.3-12.3v-9.9
		C67.2,36.8,61.7,31.3,54.9,31.3z M21.2,39h-4v19.7h-3.8V39h-4v-3.3h11.8V39z M32.4,58.7H29v-1.9c-0.6,0.7-1.3,1.2-2,1.6
		c-0.7,0.4-1.3,0.5-2,0.5c-0.8,0-1.4-0.3-1.8-0.8s-0.6-1.3-0.6-2.3V41.7H26v13c0,0.4,0.1,0.7,0.2,0.9s0.4,0.3,0.7,0.3
		c0.2,0,0.6-0.1,0.9-0.4c0.4-0.2,0.7-0.5,1.1-0.9V41.7h3.4L32.4,58.7L32.4,58.7z M44.7,55.2c0,1.2-0.3,2.1-0.8,2.8
		c-0.5,0.6-1.3,1-2.3,1c-0.7,0-1.3-0.1-1.8-0.4c-0.5-0.2-1-0.6-1.5-1.2v1.3H35v-23h3.4V43c0.5-0.5,0.9-0.9,1.5-1.2
		c0.5-0.3,1-0.4,1.6-0.4c1.1,0,1.9,0.4,2.5,1.1c0.6,0.7,0.8,1.8,0.8,3.2L44.7,55.2L44.7,55.2z M56.5,50.6H50v3.2
		c0,0.9,0.1,1.5,0.3,1.9c0.2,0.3,0.6,0.5,1.2,0.5c0.6,0,1-0.1,1.2-0.4c0.2-0.3,0.3-0.9,0.3-1.9V53h3.5v0.9c0,1.7-0.4,3.1-1.3,3.9
		c-0.8,0.9-2.1,1.3-3.8,1.3c-1.5,0-2.7-0.5-3.6-1.4c-0.9-0.9-1.3-2.2-1.3-3.9v-7.6c0-1.5,0.5-2.7,1.4-3.6c1-0.9,2.2-1.4,3.7-1.4
		c1.6,0,2.8,0.4,3.6,1.3c0.8,0.9,1.3,2.1,1.3,3.7C56.5,46.2,56.5,50.6,56.5,50.6z"/>
	<path class="st0" d="M51.5,44.2c-0.5,0-0.9,0.2-1.2,0.5C50.1,45,50,45.5,50,46.2v1.7h3v-1.7c0-0.7-0.1-1.2-0.4-1.5
		C52.4,44.4,52.1,44.2,51.5,44.2z"/>
	<path class="st0" d="M39.8,44.2c-0.2,0-0.5,0.1-0.7,0.2c-0.2,0.1-0.5,0.3-0.7,0.5v10.6c0.3,0.3,0.5,0.5,0.8,0.6s0.5,0.2,0.8,0.2
		c0.4,0,0.7-0.1,0.9-0.4c0.2-0.2,0.3-0.6,0.3-1.2v-8.8c0-0.6-0.1-1-0.4-1.3C40.6,44.3,40.3,44.2,39.8,44.2z"/>
	<polygon class="st0" points="17.8,25.4 22.2,25.4 22.2,14.9 27.2,0 22.8,0 20.1,10.1 19.9,10.1 17.1,0 12.7,0 17.8,15.3 	"/>
	<path class="st0" d="M33,25.9c1.7,0,3.1-0.5,4.1-1.4s1.5-2.2,1.5-3.8V11c0-1.4-0.5-2.6-1.5-3.5s-2.3-1.4-3.9-1.4
		c-1.7,0-3.1,0.4-4.2,1.3c-1,0.9-1.5,2-1.5,3.5v9.7c0,1.6,0.5,2.9,1.5,3.8C30,25.4,31.3,25.9,33,25.9z M31.4,10.8
		c0-0.4,0.1-0.7,0.4-1s0.7-0.4,1.1-0.4c0.5,0,0.9,0.1,1.2,0.4c0.3,0.3,0.5,0.6,0.5,1V21c0,0.5-0.2,0.9-0.5,1.2
		c-0.3,0.3-0.7,0.4-1.2,0.4s-0.9-0.1-1.2-0.4c-0.3-0.3-0.4-0.7-0.4-1.2V10.8H31.4z"/>
	<path class="st0" d="M44.4,25.7c0.7,0,1.5-0.2,2.2-0.6c0.8-0.4,1.5-1,2.2-1.7v2.1h3.8V6.7h-3.8v14.2c-0.4,0.4-0.8,0.7-1.2,1
		s-0.8,0.4-1.1,0.4c-0.4,0-0.6-0.1-0.8-0.3c-0.2-0.2-0.2-0.5-0.2-1V6.7h-3.8v15.7c0,1.1,0.2,2,0.7,2.5
		C42.8,25.4,43.5,25.7,44.4,25.7z"/>
</g>
</svg>
